<?xml version="1.0" encoding="UTF-8" standalone="no"?>
<!DOCTYPE svg PUBLIC "-//W3C//DTD SVG 1.1//EN"
 "http://www.w3.org/Graphics/SVG/1.1/DTD/svg11.dtd">
<!-- Generated by graphviz version 15.0.0 (20260523.1842)
 -->
<!-- Title: MacAppArchitecture Pages: 1 -->
<svg width="2874pt" height="896pt"
 viewBox="0.00 0.00 2874.00 896.00" xmlns="http://www.w3.org/2000/svg" xmlns:xlink="http://www.w3.org/1999/xlink">
<g id="graph0" class="graph" transform="scale(1 1) rotate(0) translate(25.2 870.95)">
<title>MacAppArchitecture</title>
<polygon fill="white" stroke="none" points="-25.2,25.2 -25.2,-870.95 2848.41,-870.95 2848.41,25.2 -25.2,25.2"/>
<text xml:space="preserve" text-anchor="middle" x="1411.6" y="-820.85" font-family="Helvetica,sans-Serif" font-size="22.00">MultiAgentDesktop SwiftUI App Code Architecture</text>
<g id="clust1" class="cluster">
<title>cluster_scene</title>
<path fill="#f7fbff" stroke="#d6e4ff" d="M20,-306C20,-306 525.56,-306 525.56,-306 531.56,-306 537.56,-312 537.56,-318 537.56,-318 537.56,-529 537.56,-529 537.56,-535 531.56,-541 525.56,-541 525.56,-541 20,-541 20,-541 14,-541 8,-535 8,-529 8,-529 8,-318 8,-318 8,-312 14,-306 20,-306"/>
<text xml:space="preserve" text-anchor="middle" x="272.78" y="-516.1" font-family="Helvetica,sans-Serif" font-size="22.00">App Scenes</text>
</g>
<g id="clust2" class="cluster">
<title>cluster_state</title>
<path fill="#f8fff9" stroke="#d8f3dc" d="M1626.12,-367C1626.12,-367 2169.93,-367 2169.93,-367 2175.93,-367 2181.93,-373 2181.93,-379 2181.93,-379 2181.93,-526 2181.93,-526 2181.93,-532 2175.93,-538 2169.93,-538 2169.93,-538 1626.12,-538 1626.12,-538 1620.12,-538 1614.12,-532 1614.12,-526 1614.12,-526 1614.12,-379 1614.12,-379 1614.12,-373 1620.12,-367 1626.12,-367"/>
<text xml:space="preserve" text-anchor="middle" x="1898.02" y="-513.1" font-family="Helvetica,sans-Serif" font-size="22.00">State and Models</text>
</g>
<g id="clust3" class="cluster">
<title>cluster_services</title>
<path fill="#fffaf2" stroke="#ffe5b4" d="M1960.77,-185C1960.77,-185 2803.21,-185 2803.21,-185 2809.21,-185 2815.21,-191 2815.21,-197 2815.21,-197 2815.21,-347 2815.21,-347 2815.21,-353 2809.21,-359 2803.21,-359 2803.21,-359 1960.77,-359 1960.77,-359 1954.77,-359 1948.77,-353 1948.77,-347 1948.77,-347 1948.77,-197 1948.77,-197 1948.77,-191 1954.77,-185 1960.77,-185"/>
<text xml:space="preserve" text-anchor="middle" x="2381.99" y="-334.1" font-family="Helvetica,sans-Serif" font-size="22.00">Services</text>
</g>
<g id="clust4" class="cluster">
<title>cluster_navigation</title>
<path fill="#fbf7ff" stroke="#eadcff" d="M690.06,-268C690.06,-268 877.06,-268 877.06,-268 883.06,-268 889.06,-274 889.06,-280 889.06,-280 889.06,-567 889.06,-567 889.06,-573 883.06,-579 877.06,-579 877.06,-579 690.06,-579 690.06,-579 684.06,-579 678.06,-573 678.06,-567 678.06,-567 678.06,-280 678.06,-280 678.06,-274 684.06,-268 690.06,-268"/>
<text xml:space="preserve" text-anchor="middle" x="783.56" y="-554.1" font-family="Helvetica,sans-Serif" font-size="22.00">Main Window Views</text>
</g>
<g id="clust5" class="cluster">
<title>cluster_session_ui</title>
<path fill="#fff7fb" stroke="#fbcfe8" d="M1031.81,-420C1031.81,-420 1465.37,-420 1465.37,-420 1471.37,-420 1477.37,-426 1477.37,-432 1477.37,-432 1477.37,-643 1477.37,-643 1477.37,-649 1471.37,-655 1465.37,-655 1465.37,-655 1031.81,-655 1031.81,-655 1025.81,-655 1019.81,-649 1019.81,-643 1019.81,-643 1019.81,-432 1019.81,-432 1019.81,-426 1025.81,-420 1031.81,-420"/>
<text xml:space="preserve" text-anchor="middle" x="1248.59" y="-630.1" font-family="Helvetica,sans-Serif" font-size="22.00">Session Workspace UI</text>
</g>
<!-- app -->
<g id="node1" class="node">
<title>app</title>
<path fill="#f7f8fa" stroke="#c8ccd0" d="M196.78,-400C196.78,-400 28,-400 28,-400 22,-400 16,-394 16,-388 16,-388 16,-376 16,-376 16,-370 22,-364 28,-364 28,-364 196.78,-364 196.78,-364 202.78,-364 208.78,-370 208.78,-376 208.78,-376 208.78,-388 208.78,-388 208.78,-394 202.78,-400 196.78,-400"/>
<text xml:space="preserve" text-anchor="middle" x="112.39" y="-383.55" font-family="Helvetica,sans-Serif" font-size="11.00">MultiAgentDesktopApp</text>
<text xml:space="preserve" text-anchor="middle" x="112.39" y="-371.55" font-family="Helvetica,sans-Serif" font-size="11.00">WindowGroup, Commands, Settings</text>
</g>
<!-- appDelegate -->
<g id="node2" class="node">
<title>appDelegate</title>
<path fill="#f7f8fa" stroke="#c8ccd0" d="M508.93,-350C508.93,-350 378.4,-350 378.4,-350 372.4,-350 366.4,-344 366.4,-338 366.4,-338 366.4,-326 366.4,-326 366.4,-320 372.4,-314 378.4,-314 378.4,-314 508.93,-314 508.93,-314 514.93,-314 520.93,-320 520.93,-326 520.93,-326 520.93,-338 520.93,-338 520.93,-344 514.93,-350 508.93,-350"/>
<text xml:space="preserve" text-anchor="middle" x="443.67" y="-333.55" font-family="Helvetica,sans-Serif" font-size="11.00">AppDelegate</text>
<text xml:space="preserve" text-anchor="middle" x="443.67" y="-321.55" font-family="Helvetica,sans-Serif" font-size="11.00">activation + termination hook</text>
</g>
<!-- app&#45;&gt;appDelegate -->
<g id="edge1" class="edge">
<title>app&#45;&gt;appDelegate</title>
<path fill="none" stroke="#6b7280" d="M209.07,-367.47C255.79,-360.38 311.56,-351.91 356.88,-345.03"/>
<polygon fill="#6b7280" stroke="#6b7280" points="357.11,-347.82 364.6,-343.85 356.27,-342.29 357.11,-347.82"/>
<text xml:space="preserve" text-anchor="middle" x="283.28" y="-363.23" font-family="Helvetica,sans-Serif" font-size="10.00">termination callback</text>
</g>
<!-- contentView -->
<g id="node3" class="node">
<title>contentView</title>
<path fill="#f7f8fa" stroke="#c8ccd0" d="M499.18,-426C499.18,-426 388.15,-426 388.15,-426 382.15,-426 376.15,-420 376.15,-414 376.15,-414 376.15,-402 376.15,-402 376.15,-396 382.15,-390 388.15,-390 388.15,-390 499.18,-390 499.18,-390 505.18,-390 511.18,-396 511.18,-402 511.18,-402 511.18,-414 511.18,-414 511.18,-420 505.18,-426 499.18,-426"/>
<text xml:space="preserve" text-anchor="middle" x="443.67" y="-409.55" font-family="Helvetica,sans-Serif" font-size="11.00">ContentView</text>
<text xml:space="preserve" text-anchor="middle" x="443.67" y="-397.55" font-family="Helvetica,sans-Serif" font-size="11.00">NavigationSplitView root</text>
</g>
<!-- app&#45;&gt;contentView -->
<g id="edge3" class="edge">
<title>app&#45;&gt;contentView</title>
<path fill="none" stroke="#6b7280" d="M209.07,-389.56C259.08,-393.5 319.45,-398.27 366.29,-401.97"/>
<polygon fill="#6b7280" stroke="#6b7280" points="366.06,-404.76 374.26,-402.6 366.5,-399.18 366.06,-404.76"/>
<text xml:space="preserve" text-anchor="middle" x="283.28" y="-400.6" font-family="Helvetica,sans-Serif" font-size="10.00">main scene</text>
</g>
<!-- settingsView -->
<g id="node4" class="node">
<title>settingsView</title>
<path fill="#f7f8fa" stroke="#c8ccd0" d="M517.56,-502C517.56,-502 369.78,-502 369.78,-502 363.78,-502 357.78,-496 357.78,-490 357.78,-490 357.78,-478 357.78,-478 357.78,-472 363.78,-466 369.78,-466 369.78,-466 517.56,-466 517.56,-466 523.56,-466 529.56,-472 529.56,-478 529.56,-478 529.56,-490 529.56,-490 529.56,-496 523.56,-502 517.56,-502"/>
<text xml:space="preserve" text-anchor="middle" x="443.67" y="-485.55" font-family="Helvetica,sans-Serif" font-size="11.00">SettingsView</text>
<text xml:space="preserve" text-anchor="middle" x="443.67" y="-473.55" font-family="Helvetica,sans-Serif" font-size="11.00">Daemon/Auth/MCP/Skills panes</text>
</g>
<!-- app&#45;&gt;settingsView -->
<g id="edge4" class="edge">
<title>app&#45;&gt;settingsView</title>
<path fill="none" stroke="#6b7280" d="M173.02,-400.47C229.69,-418.03 314.86,-444.41 374.27,-462.81"/>
<polygon fill="#6b7280" stroke="#6b7280" points="373.29,-465.44 381.76,-465.13 374.95,-460.09 373.29,-465.44"/>
<text xml:space="preserve" text-anchor="middle" x="283.28" y="-449.85" font-family="Helvetica,sans-Serif" font-size="10.00">settings scene</text>
</g>
<!-- sessionStore -->
<g id="node5" class="node">
<title>sessionStore</title>
<path fill="#f7f8fa" stroke="#c8ccd0" d="M1766.15,-411C1766.15,-411 1634.12,-411 1634.12,-411 1628.12,-411 1622.12,-405 1622.12,-399 1622.12,-399 1622.12,-387 1622.12,-387 1622.12,-381 1628.12,-375 1634.12,-375 1634.12,-375 1766.15,-375 1766.15,-375 1772.15,-375 1778.15,-381 1778.15,-387 1778.15,-387 1778.15,-399 1778.15,-399 1778.15,-405 1772.15,-411 1766.15,-411"/>
<text xml:space="preserve" text-anchor="middle" x="1700.13" y="-394.55" font-family="Helvetica,sans-Serif" font-size="11.00">SessionStore</text>
<text xml:space="preserve" text-anchor="middle" x="1700.13" y="-382.55" font-family="Helvetica,sans-Serif" font-size="11.00">observable app/session state</text>
</g>
<!-- app&#45;&gt;sessionStore -->
<g id="edge2" class="edge">
<title>app&#45;&gt;sessionStore</title>
<path fill="none" stroke="#6b7280" d="M118.99,-363.58C143.42,-287.27 248.29,0 442.67,0 442.67,0 442.67,0 1415.6,0 1506.51,0 1532.89,-35.2 1591.12,-105 1657.92,-185.08 1685.66,-310.56 1695.06,-365.59"/>
<polygon fill="#6b7280" stroke="#6b7280" points="1692.25,-365.78 1696.32,-373.22 1697.78,-364.87 1692.25,-365.78"/>
<text xml:space="preserve" text-anchor="middle" x="954.43" y="-1.75" font-family="Helvetica,sans-Serif" font-size="10.00">owns @State store</text>
</g>
<!-- sidebar -->
<g id="node12" class="node">
<title>sidebar</title>
<path fill="#f7f8fa" stroke="#c8ccd0" d="M841.2,-312C841.2,-312 724.92,-312 724.92,-312 718.92,-312 712.92,-306 712.92,-300 712.92,-300 712.92,-288 712.92,-288 712.92,-282 718.92,-276 724.92,-276 724.92,-276 841.2,-276 841.2,-276 847.2,-276 853.2,-282 853.2,-288 853.2,-288 853.2,-300 853.2,-300 853.2,-306 847.2,-312 841.2,-312"/>
<text xml:space="preserve" text-anchor="middle" x="783.06" y="-295.55" font-family="Helvetica,sans-Serif" font-size="11.00">SidebarView</text>
<text xml:space="preserve" text-anchor="middle" x="783.06" y="-283.55" font-family="Helvetica,sans-Serif" font-size="11.00">menu + stable session list</text>
</g>
<!-- contentView&#45;&gt;sidebar -->
<g id="edge5" class="edge">
<title>contentView&#45;&gt;sidebar</title>
<path fill="none" stroke="#6b7280" d="M489.8,-389.52C511.12,-381.01 537.01,-370.99 560.56,-362.75 609.88,-345.49 666.11,-328.06 709.58,-315.07"/>
<polygon fill="#6b7280" stroke="#6b7280" points="710.34,-317.77 717.2,-312.8 708.74,-312.4 710.34,-317.77"/>
<text xml:space="preserve" text-anchor="middle" x="607.81" y="-364.5" font-family="Helvetica,sans-Serif" font-size="10.00">sidebar</text>
</g>
<!-- sessionDetail -->
<g id="node13" class="node">
<title>sessionDetail</title>
<path fill="#f7f8fa" stroke="#c8ccd0" d="M846.82,-464C846.82,-464 719.29,-464 719.29,-464 713.29,-464 707.29,-458 707.29,-452 707.29,-452 707.29,-440 707.29,-440 707.29,-434 713.29,-428 719.29,-428 719.29,-428 846.82,-428 846.82,-428 852.82,-428 858.82,-434 858.82,-440 858.82,-440 858.82,-452 858.82,-452 858.82,-458 852.82,-464 846.82,-464"/>
<text xml:space="preserve" text-anchor="middle" x="783.06" y="-447.55" font-family="Helvetica,sans-Serif" font-size="11.00">SessionDetailView</text>
<text xml:space="preserve" text-anchor="middle" x="783.06" y="-435.55" font-family="Helvetica,sans-Serif" font-size="11.00">chat/inspector split + toolbar</text>
</g>
<!-- contentView&#45;&gt;sessionDetail -->
<g id="edge6" class="edge">
<title>contentView&#45;&gt;sessionDetail</title>
<path fill="none" stroke="#6b7280" d="M511.33,-415.51C564.72,-421.52 639.96,-429.99 697.57,-436.48"/>
<polygon fill="#6b7280" stroke="#6b7280" points="697.25,-439.27 705.52,-437.38 697.88,-433.7 697.25,-439.27"/>
<text xml:space="preserve" text-anchor="middle" x="607.81" y="-433.27" font-family="Helvetica,sans-Serif" font-size="10.00">session destination</text>
</g>
<!-- rolesView -->
<g id="node14" class="node">
<title>rolesView</title>
<path fill="#f7f8fa" stroke="#c8ccd0" d="M822.45,-388C822.45,-388 743.67,-388 743.67,-388 737.67,-388 731.67,-382 731.67,-376 731.67,-376 731.67,-364 731.67,-364 731.67,-358 737.67,-352 743.67,-352 743.67,-352 822.45,-352 822.45,-352 828.45,-352 834.45,-358 834.45,-364 834.45,-364 834.45,-376 834.45,-376 834.45,-382 828.45,-388 822.45,-388"/>
<text xml:space="preserve" text-anchor="middle" x="783.06" y="-371.55" font-family="Helvetica,sans-Serif" font-size="11.00">RolesView</text>
<text xml:space="preserve" text-anchor="middle" x="783.06" y="-359.55" font-family="Helvetica,sans-Serif" font-size="11.00">role catalog editor</text>
</g>
<!-- contentView&#45;&gt;rolesView -->
<g id="edge7" class="edge">
<title>contentView&#45;&gt;rolesView</title>
<path fill="none" stroke="#6b7280" d="M511.33,-400.49C572.67,-393.58 662.84,-383.43 722,-376.76"/>
<polygon fill="#6b7280" stroke="#6b7280" points="722.08,-379.57 729.71,-375.9 721.45,-374.01 722.08,-379.57"/>
<text xml:space="preserve" text-anchor="middle" x="607.81" y="-396.37" font-family="Helvetica,sans-Serif" font-size="10.00">roles destination</text>
</g>
<!-- workflowsView -->
<g id="node15" class="node">
<title>workflowsView</title>
<path fill="#f7f8fa" stroke="#c8ccd0" d="M852.82,-540C852.82,-540 713.29,-540 713.29,-540 707.29,-540 701.29,-534 701.29,-528 701.29,-528 701.29,-516 701.29,-516 701.29,-510 707.29,-504 713.29,-504 713.29,-504 852.82,-504 852.82,-504 858.82,-504 864.82,-510 864.82,-516 864.82,-516 864.82,-528 864.82,-528 864.82,-534 858.82,-540 852.82,-540"/>
<text xml:space="preserve" text-anchor="middle" x="783.06" y="-523.55" font-family="Helvetica,sans-Serif" font-size="11.00">WorkflowsView</text>
<text xml:space="preserve" text-anchor="middle" x="783.06" y="-511.55" font-family="Helvetica,sans-Serif" font-size="11.00">workflow catalog + spec graph</text>
</g>
<!-- contentView&#45;&gt;workflowsView -->
<g id="edge8" class="edge">
<title>contentView&#45;&gt;workflowsView</title>
<path fill="none" stroke="#6b7280" d="M490.09,-426.46C511.36,-434.9 537.13,-444.81 560.56,-453 609.9,-470.24 666.14,-487.73 709.6,-500.79"/>
<polygon fill="#6b7280" stroke="#6b7280" points="708.75,-503.46 717.22,-503.08 710.36,-498.1 708.75,-503.46"/>
<text xml:space="preserve" text-anchor="middle" x="607.81" y="-484.65" font-family="Helvetica,sans-Serif" font-size="10.00">workflows destination</text>
</g>
<!-- settingsView&#45;&gt;sessionStore -->
<g id="edge21" class="edge">
<title>settingsView&#45;&gt;sessionStore</title>
<path fill="none" stroke="#6b7280" d="M452.7,-502.12C484.04,-569.82 605.26,-804 782.06,-804 782.06,-804 782.06,-804 1415.6,-804 1602.33,-804 1675.56,-513.02 1694.09,-420.73"/>
<polygon fill="#6b7280" stroke="#6b7280" points="1696.83,-421.33 1695.61,-412.94 1691.33,-420.26 1696.83,-421.33"/>
<text xml:space="preserve" text-anchor="middle" x="1108.82" y="-805.75" font-family="Helvetica,sans-Serif" font-size="10.00">auth/integration settings</text>
</g>
<!-- models -->
<g id="node6" class="node">
<title>models</title>
<path fill="#f7f8fa" stroke="#c8ccd0" d="M2161.93,-499C2161.93,-499 1966.9,-499 1966.9,-499 1960.9,-499 1954.9,-493 1954.9,-487 1954.9,-487 1954.9,-475 1954.9,-475 1954.9,-469 1960.9,-463 1966.9,-463 1966.9,-463 2161.93,-463 2161.93,-463 2167.93,-463 2173.93,-469 2173.93,-475 2173.93,-475 2173.93,-487 2173.93,-487 2173.93,-493 2167.93,-499 2161.93,-499"/>
<text xml:space="preserve" text-anchor="middle" x="2064.41" y="-482.55" font-family="Helvetica,sans-Serif" font-size="11.00">Models.swift</text>
<text xml:space="preserve" text-anchor="middle" x="2064.41" y="-470.55" font-family="Helvetica,sans-Serif" font-size="11.00">protocol, graph, session, transcript models</text>
</g>
<!-- sessionStore&#45;&gt;models -->
<g id="edge22" class="edge">
<title>sessionStore&#45;&gt;models</title>
<path fill="none" stroke="#6b7280" d="M1777.08,-411.45C1835.79,-425.71 1917.07,-445.45 1978.04,-460.26"/>
<polygon fill="#6b7280" stroke="#6b7280" points="1977.35,-462.98 1985.79,-462.14 1978.67,-457.53 1977.35,-462.98"/>
<text xml:space="preserve" text-anchor="middle" x="1866.52" y="-446.63" font-family="Helvetica,sans-Serif" font-size="10.00">decodes/holds typed state</text>
</g>
<!-- userDefaults -->
<g id="node7" class="node">
<title>userDefaults</title>
<path fill="#f7f8fa" stroke="#c8ccd0" d="M2104.55,-418.98C2104.55,-421.43 2086.56,-423.42 2064.41,-423.42 2042.27,-423.42 2024.27,-421.43 2024.27,-418.98 2024.27,-418.98 2024.27,-379.02 2024.27,-379.02 2024.27,-376.57 2042.27,-374.58 2064.41,-374.58 2086.56,-374.58 2104.55,-376.57 2104.55,-379.02 2104.55,-379.02 2104.55,-418.98 2104.55,-418.98"/>
<path fill="none" stroke="#c8ccd0" d="M2104.55,-418.98C2104.55,-416.53 2086.56,-414.54 2064.41,-414.54 2042.27,-414.54 2024.27,-416.53 2024.27,-418.98"/>
<text xml:space="preserve" text-anchor="middle" x="2064.41" y="-400.55" font-family="Helvetica,sans-Serif" font-size="11.00">UserDefaults</text>
<text xml:space="preserve" text-anchor="middle" x="2064.41" y="-388.55" font-family="Helvetica,sans-Serif" font-size="11.00">daemon port</text>
</g>
<!-- sessionStore&#45;&gt;userDefaults -->
<g id="edge25" class="edge">
<title>sessionStore&#45;&gt;userDefaults</title>
<path fill="none" stroke="#6b7280" d="M1778.41,-394.28C1850.01,-395.47 1954.32,-397.19 2014.88,-398.2"/>
<polygon fill="#6b7280" stroke="#6b7280" points="2014.66,-400.99 2022.7,-398.33 2014.75,-395.39 2014.66,-400.99"/>
<text xml:space="preserve" text-anchor="middle" x="1866.52" y="-398.29" font-family="Helvetica,sans-Serif" font-size="10.00">daemonPort</text>
</g>
<!-- daemonClient -->
<g id="node8" class="node">
<title>daemonClient</title>
<path fill="#f7f8fa" stroke="#c8ccd0" d="M2160.05,-320C2160.05,-320 1968.77,-320 1968.77,-320 1962.77,-320 1956.77,-314 1956.77,-308 1956.77,-308 1956.77,-296 1956.77,-296 1956.77,-290 1962.77,-284 1968.77,-284 1968.77,-284 2160.05,-284 2160.05,-284 2166.05,-284 2172.05,-290 2172.05,-296 2172.05,-296 2172.05,-308 2172.05,-308 2172.05,-314 2166.05,-320 2160.05,-320"/>
<text xml:space="preserve" text-anchor="middle" x="2064.41" y="-303.55" font-family="Helvetica,sans-Serif" font-size="11.00">DaemonClient</text>
<text xml:space="preserve" text-anchor="middle" x="2064.41" y="-291.55" font-family="Helvetica,sans-Serif" font-size="11.00">URLSessionWebSocketTask JSON&#45;RPC</text>
</g>
<!-- sessionStore&#45;&gt;daemonClient -->
<g id="edge23" class="edge">
<title>sessionStore&#45;&gt;daemonClient</title>
<path fill="none" stroke="#6b7280" d="M1774.45,-374.58C1834.26,-359.56 1918.72,-338.34 1980.9,-322.73"/>
<polygon fill="#6b7280" stroke="#6b7280" points="1981.36,-325.5 1988.43,-320.83 1979.99,-320.07 1981.36,-325.5"/>
<text xml:space="preserve" text-anchor="middle" x="1866.52" y="-365.32" font-family="Helvetica,sans-Serif" font-size="10.00">sends JSON&#45;RPC</text>
</g>
<!-- localDaemonLauncher -->
<g id="node9" class="node">
<title>localDaemonLauncher</title>
<path fill="#f7f8fa" stroke="#c8ccd0" d="M2134.18,-244C2134.18,-244 1994.65,-244 1994.65,-244 1988.65,-244 1982.65,-238 1982.65,-232 1982.65,-232 1982.65,-220 1982.65,-220 1982.65,-214 1988.65,-208 1994.65,-208 1994.65,-208 2134.18,-208 2134.18,-208 2140.18,-208 2146.18,-214 2146.18,-220 2146.18,-220 2146.18,-232 2146.18,-232 2146.18,-238 2140.18,-244 2134.18,-244"/>
<text xml:space="preserve" text-anchor="middle" x="2064.41" y="-227.55" font-family="Helvetica,sans-Serif" font-size="11.00">LocalDaemonLauncher</text>
<text xml:space="preserve" text-anchor="middle" x="2064.41" y="-215.55" font-family="Helvetica,sans-Serif" font-size="11.00">starts/stops packaged daemon</text>
</g>
<!-- sessionStore&#45;&gt;localDaemonLauncher -->
<g id="edge24" class="edge">
<title>sessionStore&#45;&gt;localDaemonLauncher</title>
<path fill="none" stroke="#6b7280" d="M1724.11,-374.54C1745.29,-358.13 1778.06,-334.25 1809.15,-317.75 1866.36,-287.38 1935.79,-263.09 1987.63,-247.15"/>
<polygon fill="#6b7280" stroke="#6b7280" points="1988.16,-249.92 1995,-244.91 1986.53,-244.56 1988.16,-249.92"/>
<text xml:space="preserve" text-anchor="middle" x="1866.52" y="-319.5" font-family="Helvetica,sans-Serif" font-size="10.00">ensureStarted/shutdown</text>
</g>
<!-- externalTools -->
<g id="node20" class="node">
<title>externalTools</title>
<polygon fill="#f7f8fa" stroke="#c8ccd0" points="2129.3,-168 1999.52,-168 1999.52,-164 1995.52,-164 1995.52,-160 1999.52,-160 1999.52,-140 1995.52,-140 1995.52,-136 1999.52,-136 1999.52,-132 2129.3,-132 2129.3,-168"/>
<polyline fill="none" stroke="#c8ccd0" points="1999.52,-164 2003.52,-164 2003.52,-160 1999.52,-160"/>
<polyline fill="none" stroke="#c8ccd0" points="1999.52,-140 2003.52,-140 2003.52,-136 1999.52,-136"/>
<text xml:space="preserve" text-anchor="middle" x="2064.41" y="-151.55" font-family="Helvetica,sans-Serif" font-size="11.00">External tools</text>
<text xml:space="preserve" text-anchor="middle" x="2064.41" y="-139.55" font-family="Helvetica,sans-Serif" font-size="11.00">VS Code, Finder, iTerm</text>
</g>
<!-- sessionStore&#45;&gt;externalTools -->
<g id="edge26" class="edge">
<title>sessionStore&#45;&gt;externalTools</title>
<path fill="none" stroke="#6b7280" d="M1711.35,-374.7C1728.46,-345.35 1765.38,-287.23 1809.15,-249.75 1862.62,-203.97 1882.73,-199.34 1948.77,-175 1961.87,-170.17 1976.16,-166.14 1990.07,-162.82"/>
<polygon fill="#6b7280" stroke="#6b7280" points="1990.5,-165.6 1997.67,-161.08 1989.25,-160.14 1990.5,-165.6"/>
<text xml:space="preserve" text-anchor="middle" x="1866.52" y="-251.5" font-family="Helvetica,sans-Serif" font-size="10.00">open workspace</text>
</g>
<!-- daemonProcess -->
<g id="node10" class="node">
<title>daemonProcess</title>
<polygon fill="#f7f8fa" stroke="#c8ccd0" points="2438.07,-229 2339.04,-229 2339.04,-225 2335.04,-225 2335.04,-221 2339.04,-221 2339.04,-201 2335.04,-201 2335.04,-197 2339.04,-197 2339.04,-193 2438.07,-193 2438.07,-229"/>
<polyline fill="none" stroke="#c8ccd0" points="2339.04,-225 2343.04,-225 2343.04,-221 2339.04,-221"/>
<polyline fill="none" stroke="#c8ccd0" points="2339.04,-201 2343.04,-201 2343.04,-197 2339.04,-197"/>
<text xml:space="preserve" text-anchor="middle" x="2388.55" y="-212.55" font-family="Helvetica,sans-Serif" font-size="11.00">Daemon process</text>
<text xml:space="preserve" text-anchor="middle" x="2388.55" y="-200.55" font-family="Helvetica,sans-Serif" font-size="11.00">Node/Bun server</text>
</g>
<!-- daemonClient&#45;&gt;daemonProcess -->
<g id="edge27" class="edge">
<title>daemonClient&#45;&gt;daemonProcess</title>
<path fill="none" stroke="#6b7280" d="M2150.44,-281.28C2194.83,-270.08 2249.91,-255.59 2298.68,-241 2308.82,-237.97 2319.53,-234.54 2329.88,-231.12"/>
<polygon fill="#6b7280" stroke="#6b7280" points="2149.97,-278.51 2142.89,-283.18 2151.33,-283.94 2149.97,-278.51"/>
<polygon fill="#6b7280" stroke="#6b7280" points="2330.72,-233.79 2337.42,-228.6 2328.94,-228.48 2330.72,-233.79"/>
<text xml:space="preserve" text-anchor="middle" x="2251.8" y="-267.79" font-family="Helvetica,sans-Serif" font-size="10.00">ws://127.0.0.1:&lt;port&gt;</text>
</g>
<!-- localDaemonLauncher&#45;&gt;daemonProcess -->
<g id="edge28" class="edge">
<title>localDaemonLauncher&#45;&gt;daemonProcess</title>
<path fill="none" stroke="#6b7280" d="M2146.29,-222.23C2203.31,-219.58 2278.34,-216.09 2329.49,-213.7"/>
<polygon fill="#6b7280" stroke="#6b7280" points="2329.38,-216.51 2337.24,-213.34 2329.12,-210.92 2329.38,-216.51"/>
<text xml:space="preserve" text-anchor="middle" x="2251.8" y="-221.15" font-family="Helvetica,sans-Serif" font-size="10.00">launches process</text>
</g>
<!-- appSupport -->
<g id="node11" class="node">
<title>appSupport</title>
<polygon fill="#f7f8fa" stroke="#c8ccd0" points="2807.21,-298.76 2804.21,-302.76 2783.21,-302.76 2780.21,-298.76 2602.43,-298.76 2602.43,-239.24 2807.21,-239.24 2807.21,-298.76"/>
<text xml:space="preserve" text-anchor="middle" x="2704.82" y="-282.55" font-family="Helvetica,sans-Serif" font-size="11.00">Application Support/MultiAgentDesktop</text>
<text xml:space="preserve" text-anchor="middle" x="2704.82" y="-270.55" font-family="Helvetica,sans-Serif" font-size="11.00">sessions/</text>
<text xml:space="preserve" text-anchor="middle" x="2704.82" y="-258.55" font-family="Helvetica,sans-Serif" font-size="11.00">logs/app&#45;daemon.log</text>
<text xml:space="preserve" text-anchor="middle" x="2704.82" y="-246.55" font-family="Helvetica,sans-Serif" font-size="11.00">Build/</text>
</g>
<!-- localDaemonLauncher&#45;&gt;appSupport -->
<g id="edge29" class="edge">
<title>localDaemonLauncher&#45;&gt;appSupport</title>
<path fill="none" stroke="#6b7280" d="M2139.84,-244.48C2154.36,-249.66 2169.05,-256.1 2181.93,-264 2194.25,-271.56 2191.57,-281.47 2204.93,-287 2330.07,-338.83 2488.35,-320.67 2592.67,-298.66"/>
<polygon fill="#6b7280" stroke="#6b7280" points="2593.25,-301.4 2600.48,-296.98 2592.07,-295.92 2593.25,-301.4"/>
<text xml:space="preserve" text-anchor="middle" x="2388.55" y="-322.32" font-family="Helvetica,sans-Serif" font-size="10.00">stable sessions root + logs</text>
</g>
<!-- daemonProcess&#45;&gt;appSupport -->
<g id="edge30" class="edge">
<title>daemonProcess&#45;&gt;appSupport</title>
<path fill="none" stroke="#6b7280" d="M2438.31,-220C2479.55,-227.61 2540.19,-238.8 2593.12,-248.57"/>
<polygon fill="#6b7280" stroke="#6b7280" points="2592.35,-251.28 2600.73,-249.97 2593.37,-245.77 2592.35,-251.28"/>
<text xml:space="preserve" text-anchor="middle" x="2524.93" y="-245.22" font-family="Helvetica,sans-Serif" font-size="10.00">persists sessions</text>
</g>
<!-- keychain -->
<g id="node21" class="node">
<title>keychain</title>
<path fill="#f7f8fa" stroke="#c8ccd0" d="M2776.08,-172.98C2776.08,-175.43 2744.14,-177.42 2704.82,-177.42 2665.5,-177.42 2633.55,-175.43 2633.55,-172.98 2633.55,-172.98 2633.55,-133.02 2633.55,-133.02 2633.55,-130.57 2665.5,-128.58 2704.82,-128.58 2744.14,-128.58 2776.08,-130.57 2776.08,-133.02 2776.08,-133.02 2776.08,-172.98 2776.08,-172.98"/>
<path fill="none" stroke="#c8ccd0" d="M2776.08,-172.98C2776.08,-170.53 2744.14,-168.54 2704.82,-168.54 2665.5,-168.54 2633.55,-170.53 2633.55,-172.98"/>
<text xml:space="preserve" text-anchor="middle" x="2704.82" y="-154.55" font-family="Helvetica,sans-Serif" font-size="11.00">macOS Keychain</text>
<text xml:space="preserve" text-anchor="middle" x="2704.82" y="-142.55" font-family="Helvetica,sans-Serif" font-size="11.00">managed by daemon/auth</text>
</g>
<!-- daemonProcess&#45;&gt;keychain -->
<g id="edge31" class="edge">
<title>daemonProcess&#45;&gt;keychain</title>
<path fill="none" stroke="#6b7280" d="M2438.31,-202C2487.9,-192.85 2565.56,-178.52 2624.1,-167.71"/>
<polygon fill="#6b7280" stroke="#6b7280" points="2624.48,-170.49 2631.84,-166.28 2623.46,-164.98 2624.48,-170.49"/>
<text xml:space="preserve" text-anchor="middle" x="2524.93" y="-195.61" font-family="Helvetica,sans-Serif" font-size="10.00">auth storage</text>
</g>
<!-- codexConfig -->
<g id="node22" class="node">
<title>codexConfig</title>
<polygon fill="#f7f8fa" stroke="#c8ccd0" points="2759.21,-89 2756.21,-93 2735.21,-93 2732.21,-89 2650.43,-89 2650.43,-53 2759.21,-53 2759.21,-89"/>
<text xml:space="preserve" text-anchor="middle" x="2704.82" y="-72.55" font-family="Helvetica,sans-Serif" font-size="11.00">~/.codex</text>
<text xml:space="preserve" text-anchor="middle" x="2704.82" y="-60.55" font-family="Helvetica,sans-Serif" font-size="11.00">skills + MCP config</text>
</g>
<!-- daemonProcess&#45;&gt;codexConfig -->
<g id="edge32" class="edge">
<title>daemonProcess&#45;&gt;codexConfig</title>
<path fill="none" stroke="#6b7280" d="M2417.7,-192.5C2434.86,-181.64 2457.45,-168.07 2478.43,-157.75 2531.87,-131.46 2595.39,-107.64 2641.35,-91.64"/>
<polygon fill="#6b7280" stroke="#6b7280" points="2642.23,-94.3 2648.87,-89.04 2640.4,-89.01 2642.23,-94.3"/>
<text xml:space="preserve" text-anchor="middle" x="2524.93" y="-159.5" font-family="Helvetica,sans-Serif" font-size="10.00">MCP/skills discovery</text>
</g>
<!-- sidebar&#45;&gt;sessionStore -->
<g id="edge13" class="edge">
<title>sidebar&#45;&gt;sessionStore</title>
<path fill="none" stroke="#6b7280" d="M794.33,-275.77C813.13,-244.31 856.35,-180.36 912.06,-151 1179.17,-10.25 1342.08,0.7 1591.12,-170 1658.51,-216.19 1685.36,-316.58 1694.73,-365.33"/>
<polygon fill="#6b7280" stroke="#6b7280" points="1691.96,-365.77 1696.15,-373.14 1697.47,-364.77 1691.96,-365.77"/>
<text xml:space="preserve" text-anchor="middle" x="1274.84" y="-51.59" font-family="Helvetica,sans-Serif" font-size="10.00">selection + new session</text>
</g>
<!-- sessionDetail&#45;&gt;sessionStore -->
<g id="edge14" class="edge">
<title>sessionDetail&#45;&gt;sessionStore</title>
<path fill="none" stroke="#6b7280" d="M854.92,-427.57C940.8,-406.28 1090.26,-372.52 1220.84,-359.75 1268.61,-355.08 1280.84,-359.06 1328.84,-359.75 1394.87,-360.69 1411.36,-361.9 1477.37,-364 1527.93,-365.61 1540.97,-361.38 1591.12,-368 1600.14,-369.19 1609.5,-370.79 1618.79,-372.62"/>
<polygon fill="#6b7280" stroke="#6b7280" points="1618.14,-375.34 1626.54,-374.2 1619.26,-369.86 1618.14,-375.34"/>
<text xml:space="preserve" text-anchor="middle" x="1274.84" y="-361.5" font-family="Helvetica,sans-Serif" font-size="10.00">toolbar/control actions</text>
</g>
<!-- chatView -->
<g id="node16" class="node">
<title>chatView</title>
<path fill="#f7f8fa" stroke="#c8ccd0" d="M1159.09,-540C1159.09,-540 1058.56,-540 1058.56,-540 1052.56,-540 1046.56,-534 1046.56,-528 1046.56,-528 1046.56,-516 1046.56,-516 1046.56,-510 1052.56,-504 1058.56,-504 1058.56,-504 1159.09,-504 1159.09,-504 1165.09,-504 1171.09,-510 1171.09,-516 1171.09,-516 1171.09,-528 1171.09,-528 1171.09,-534 1165.09,-540 1159.09,-540"/>
<text xml:space="preserve" text-anchor="middle" x="1108.82" y="-523.55" font-family="Helvetica,sans-Serif" font-size="11.00">OrchestratorChatView</text>
<text xml:space="preserve" text-anchor="middle" x="1108.82" y="-511.55" font-family="Helvetica,sans-Serif" font-size="11.00">transcript timeline</text>
</g>
<!-- sessionDetail&#45;&gt;chatView -->
<g id="edge9" class="edge">
<title>sessionDetail&#45;&gt;chatView</title>
<path fill="none" stroke="#6b7280" d="M859.15,-463.63C912.83,-476.23 984.6,-493.07 1037.23,-505.43"/>
<polygon fill="#6b7280" stroke="#6b7280" points="1036.26,-508.08 1044.69,-507.18 1037.54,-502.63 1036.26,-508.08"/>
<text xml:space="preserve" text-anchor="middle" x="954.43" y="-497" font-family="Helvetica,sans-Serif" font-size="10.00">center timeline</text>
</g>
<!-- composer -->
<g id="node17" class="node">
<title>composer</title>
<path fill="#f7f8fa" stroke="#c8ccd0" d="M1177.84,-464C1177.84,-464 1039.81,-464 1039.81,-464 1033.81,-464 1027.81,-458 1027.81,-452 1027.81,-452 1027.81,-440 1027.81,-440 1027.81,-434 1033.81,-428 1039.81,-428 1039.81,-428 1177.84,-428 1177.84,-428 1183.84,-428 1189.84,-434 1189.84,-440 1189.84,-440 1189.84,-452 1189.84,-452 1189.84,-458 1183.84,-464 1177.84,-464"/>
<text xml:space="preserve" text-anchor="middle" x="1108.82" y="-447.55" font-family="Helvetica,sans-Serif" font-size="11.00">ComposerView</text>
<text xml:space="preserve" text-anchor="middle" x="1108.82" y="-435.55" font-family="Helvetica,sans-Serif" font-size="11.00">new&#45;session prompt + nudges</text>
</g>
<!-- sessionDetail&#45;&gt;composer -->
<g id="edge10" class="edge">
<title>sessionDetail&#45;&gt;composer</title>
<path fill="none" stroke="#6b7280" d="M859.15,-446C906.54,-446 968,-446 1017.97,-446"/>
<polygon fill="#6b7280" stroke="#6b7280" points="1017.97,-448.8 1025.97,-446 1017.97,-443.2 1017.97,-448.8"/>
<text xml:space="preserve" text-anchor="middle" x="954.43" y="-447.75" font-family="Helvetica,sans-Serif" font-size="10.00">bottom input</text>
</g>
<!-- inspector -->
<g id="node18" class="node">
<title>inspector</title>
<path fill="#f7f8fa" stroke="#c8ccd0" d="M1176.34,-616C1176.34,-616 1041.31,-616 1041.31,-616 1035.31,-616 1029.31,-610 1029.31,-604 1029.31,-604 1029.31,-592 1029.31,-592 1029.31,-586 1035.31,-580 1041.31,-580 1041.31,-580 1176.34,-580 1176.34,-580 1182.34,-580 1188.34,-586 1188.34,-592 1188.34,-592 1188.34,-604 1188.34,-604 1188.34,-610 1182.34,-616 1176.34,-616"/>
<text xml:space="preserve" text-anchor="middle" x="1108.82" y="-599.55" font-family="Helvetica,sans-Serif" font-size="11.00">InspectorPanelView</text>
<text xml:space="preserve" text-anchor="middle" x="1108.82" y="-587.55" font-family="Helvetica,sans-Serif" font-size="11.00">inspector/graph/debug panels</text>
</g>
<!-- sessionDetail&#45;&gt;inspector -->
<g id="edge11" class="edge">
<title>sessionDetail&#45;&gt;inspector</title>
<path fill="none" stroke="#6b7280" d="M853.48,-464.4C866.03,-469.55 878.47,-475.99 889.06,-484 903.03,-494.56 898.35,-505.09 912.06,-516 946.91,-543.73 992.49,-563.55 1030.89,-576.76"/>
<polygon fill="#6b7280" stroke="#6b7280" points="1029.57,-579.26 1038.04,-579.16 1031.35,-573.95 1029.57,-579.26"/>
<text xml:space="preserve" text-anchor="middle" x="954.43" y="-563.64" font-family="Helvetica,sans-Serif" font-size="10.00">right inspector</text>
</g>
<!-- rolesView&#45;&gt;sessionStore -->
<g id="edge19" class="edge">
<title>rolesView&#45;&gt;sessionStore</title>
<path fill="none" stroke="#6b7280" d="M834.83,-362.59C854.42,-357.23 875.37,-347.97 889.06,-332 923.56,-291.77 872.82,-250.62 912.06,-215 1049.56,-90.16 1143.42,-174.09 1328.84,-184.75 1445.99,-191.48 1492.34,-151.67 1591.12,-215 1646.34,-250.4 1677.55,-325.04 1691.04,-365.51"/>
<polygon fill="#6b7280" stroke="#6b7280" points="1688.37,-366.35 1693.48,-373.11 1693.7,-364.64 1688.37,-366.35"/>
<text xml:space="preserve" text-anchor="middle" x="1274.84" y="-186.5" font-family="Helvetica,sans-Serif" font-size="10.00">list/edit/delete roles</text>
</g>
<!-- workflowsView&#45;&gt;sessionStore -->
<g id="edge20" class="edge">
<title>workflowsView&#45;&gt;sessionStore</title>
<path fill="none" stroke="#6b7280" d="M805.21,-540.47C844.32,-573.25 931.99,-640.45 1019.81,-665 1215.66,-719.76 1279.14,-710.41 1477.37,-665 1532.11,-652.46 1551.19,-649.48 1591.12,-610 1646.74,-555.01 1678.54,-465.49 1691.78,-420.56"/>
<polygon fill="#6b7280" stroke="#6b7280" points="1694.47,-421.34 1693.98,-412.87 1689.09,-419.79 1694.47,-421.34"/>
<text xml:space="preserve" text-anchor="middle" x="1274.84" y="-704.39" font-family="Helvetica,sans-Serif" font-size="10.00">list/instantiate workflows</text>
</g>
<!-- chatView&#45;&gt;sessionStore -->
<g id="edge15" class="edge">
<title>chatView&#45;&gt;sessionStore</title>
<path fill="none" stroke="#6b7280" d="M1171.5,-508.5C1276.93,-485.42 1492.06,-438.33 1612.51,-411.96"/>
<polygon fill="#6b7280" stroke="#6b7280" points="1613.03,-414.71 1620.25,-410.27 1611.84,-409.24 1613.03,-414.71"/>
<text xml:space="preserve" text-anchor="middle" x="1414.6" y="-467.83" font-family="Helvetica,sans-Serif" font-size="10.00">filtered transcript</text>
</g>
<!-- composer&#45;&gt;sessionStore -->
<g id="edge16" class="edge">
<title>composer&#45;&gt;sessionStore</title>
<path fill="none" stroke="#6b7280" d="M1158.32,-427.5C1177.61,-420.53 1200.1,-412.87 1220.84,-407 1281.67,-389.77 1296.98,-383.51 1359.84,-376.75 1411.78,-371.16 1425.17,-374.84 1477.37,-376.75 1521.93,-378.38 1571.42,-381.85 1612.33,-385.16"/>
<polygon fill="#6b7280" stroke="#6b7280" points="1612.01,-387.95 1620.22,-385.81 1612.47,-382.36 1612.01,-387.95"/>
<text xml:space="preserve" text-anchor="middle" x="1414.6" y="-378.5" font-family="Helvetica,sans-Serif" font-size="10.00">create/send messages</text>
</g>
<!-- inspector&#45;&gt;sessionStore -->
<g id="edge17" class="edge">
<title>inspector&#45;&gt;sessionStore</title>
<path fill="none" stroke="#6b7280" d="M1188.68,-581.67C1285.84,-560.07 1454.79,-517.64 1591.12,-458 1617.14,-446.62 1644.54,-430.07 1665.23,-416.52"/>
<polygon fill="#6b7280" stroke="#6b7280" points="1666.71,-418.9 1671.83,-412.14 1663.62,-414.23 1666.71,-418.9"/>
<text xml:space="preserve" text-anchor="middle" x="1414.6" y="-539.82" font-family="Helvetica,sans-Serif" font-size="10.00">panel state + debug logs</text>
</g>
<!-- graphPanel -->
<g id="node19" class="node">
<title>graphPanel</title>
<path fill="#f7f8fa" stroke="#c8ccd0" d="M1457.37,-616C1457.37,-616 1371.84,-616 1371.84,-616 1365.84,-616 1359.84,-610 1359.84,-604 1359.84,-604 1359.84,-592 1359.84,-592 1359.84,-586 1365.84,-580 1371.84,-580 1371.84,-580 1457.37,-580 1457.37,-580 1463.37,-580 1469.37,-586 1469.37,-592 1469.37,-592 1469.37,-604 1469.37,-604 1469.37,-610 1463.37,-616 1457.37,-616"/>
<text xml:space="preserve" text-anchor="middle" x="1414.6" y="-599.55" font-family="Helvetica,sans-Serif" font-size="11.00">GraphPanelView</text>
<text xml:space="preserve" text-anchor="middle" x="1414.6" y="-587.55" font-family="Helvetica,sans-Serif" font-size="11.00">live workflow graph</text>
</g>
<!-- inspector&#45;&gt;graphPanel -->
<g id="edge12" class="edge">
<title>inspector&#45;&gt;graphPanel</title>
<path fill="none" stroke="#6b7280" d="M1188.45,-598C1238.78,-598 1303.22,-598 1350.25,-598"/>
<polygon fill="#6b7280" stroke="#6b7280" points="1350.2,-600.8 1358.2,-598 1350.2,-595.2 1350.2,-600.8"/>
<text xml:space="preserve" text-anchor="middle" x="1274.84" y="-599.75" font-family="Helvetica,sans-Serif" font-size="10.00">graph panel</text>
</g>
<!-- graphPanel&#45;&gt;sessionStore -->
<g id="edge18" class="edge">
<title>graphPanel&#45;&gt;sessionStore</title>
<path fill="none" stroke="#6b7280" d="M1469.68,-594.18C1506.71,-589.29 1555.38,-578.19 1591.12,-553 1639.48,-518.91 1672.51,-455.75 1688.35,-419.82"/>
<polygon fill="#6b7280" stroke="#6b7280" points="1690.83,-421.16 1691.41,-412.7 1685.68,-418.95 1690.83,-421.16"/>
<text xml:space="preserve" text-anchor="middle" x="1545.74" y="-590.63" font-family="Helvetica,sans-Serif" font-size="10.00">select/control agents</text>
</g>
</g>
</svg>
