<?xml version="1.0" encoding="UTF-8" standalone="no"?>
<!DOCTYPE svg PUBLIC "-//W3C//DTD SVG 1.1//EN"
 "http://www.w3.org/Graphics/SVG/1.1/DTD/svg11.dtd">
<!-- Generated by graphviz version 15.0.0 (20260523.1842)
 -->
<!-- Title: DaemonArchitecture Pages: 1 -->
<svg width="2564pt" height="1148pt"
 viewBox="0.00 0.00 2564.00 1148.00" xmlns="http://www.w3.org/2000/svg" xmlns:xlink="http://www.w3.org/1999/xlink">
<g id="graph0" class="graph" transform="scale(1 1) rotate(0) translate(25.2 1122.66)">
<title>DaemonArchitecture</title>
<polygon fill="white" stroke="none" points="-25.2,25.2 -25.2,-1122.66 2539.17,-1122.66 2539.17,25.2 -25.2,25.2"/>
<text xml:space="preserve" text-anchor="middle" x="1256.99" y="-1072.56" font-family="Helvetica,sans-Serif" font-size="22.00">Multiagent Daemon Code Architecture</text>
<g id="clust1" class="cluster">
<title>cluster_entry</title>
<path fill="#f7fbff" stroke="#d6e4ff" d="M20,-113.96C20,-113.96 1043.37,-113.96 1043.37,-113.96 1049.37,-113.96 1055.37,-119.96 1055.37,-125.96 1055.37,-125.96 1055.37,-199.96 1055.37,-199.96 1055.37,-205.96 1049.37,-211.96 1043.37,-211.96 1043.37,-211.96 20,-211.96 20,-211.96 14,-211.96 8,-205.96 8,-199.96 8,-199.96 8,-125.96 8,-125.96 8,-119.96 14,-113.96 20,-113.96"/>
<text xml:space="preserve" text-anchor="middle" x="531.68" y="-187.06" font-family="Helvetica,sans-Serif" font-size="22.00">Process and Transport</text>
</g>
<g id="clust2" class="cluster">
<title>cluster_session</title>
<path fill="#f8fff9" stroke="#d8f3dc" d="M1160.62,-354.96C1160.62,-354.96 1757.68,-354.96 1757.68,-354.96 1763.68,-354.96 1769.68,-360.96 1769.68,-366.96 1769.68,-366.96 1769.68,-608.96 1769.68,-608.96 1769.68,-614.96 1763.68,-620.96 1757.68,-620.96 1757.68,-620.96 1160.62,-620.96 1160.62,-620.96 1154.62,-620.96 1148.62,-614.96 1148.62,-608.96 1148.62,-608.96 1148.62,-366.96 1148.62,-366.96 1148.62,-360.96 1154.62,-354.96 1160.62,-354.96"/>
<text xml:space="preserve" text-anchor="middle" x="1459.15" y="-596.06" font-family="Helvetica,sans-Serif" font-size="22.00">Session Orchestration</text>
</g>
<g id="clust3" class="cluster">
<title>cluster_state</title>
<path fill="#fffaf2" stroke="#ffe5b4" d="M1949.93,-373.96C1949.93,-373.96 2482.72,-373.96 2482.72,-373.96 2488.72,-373.96 2494.72,-379.96 2494.72,-385.96 2494.72,-385.96 2494.72,-607.96 2494.72,-607.96 2494.72,-613.96 2488.72,-619.96 2482.72,-619.96 2482.72,-619.96 1949.93,-619.96 1949.93,-619.96 1943.93,-619.96 1937.93,-613.96 1937.93,-607.96 1937.93,-607.96 1937.93,-385.96 1937.93,-385.96 1937.93,-379.96 1943.93,-373.96 1949.93,-373.96"/>
<text xml:space="preserve" text-anchor="middle" x="2216.33" y="-595.06" font-family="Helvetica,sans-Serif" font-size="22.00">Durable State</text>
</g>
<g id="clust4" class="cluster">
<title>cluster_integrations</title>
<path fill="#fbf7ff" stroke="#eadcff" d="M1571.02,-848.96C1571.02,-848.96 2115.58,-848.96 2115.58,-848.96 2121.58,-848.96 2127.58,-854.96 2127.58,-860.96 2127.58,-860.96 2127.58,-1046.96 2127.58,-1046.96 2127.58,-1052.96 2121.58,-1058.96 2115.58,-1058.96 2115.58,-1058.96 1571.02,-1058.96 1571.02,-1058.96 1565.02,-1058.96 1559.02,-1052.96 1559.02,-1046.96 1559.02,-1046.96 1559.02,-860.96 1559.02,-860.96 1559.02,-854.96 1565.02,-848.96 1571.02,-848.96"/>
<text xml:space="preserve" text-anchor="middle" x="1843.3" y="-1034.06" font-family="Helvetica,sans-Serif" font-size="22.00">Auth and Integrations</text>
</g>
<g id="clust5" class="cluster">
<title>cluster_shared</title>
<path fill="#fcfcfd" stroke="#e5e7eb" d="M2336.71,-213.96C2336.71,-213.96 2498.96,-213.96 2498.96,-213.96 2504.96,-213.96 2510.96,-219.96 2510.96,-225.96 2510.96,-225.96 2510.96,-284.96 2510.96,-284.96 2510.96,-290.96 2504.96,-296.96 2498.96,-296.96 2498.96,-296.96 2336.71,-296.96 2336.71,-296.96 2330.71,-296.96 2324.71,-290.96 2324.71,-284.96 2324.71,-284.96 2324.71,-225.96 2324.71,-225.96 2324.71,-219.96 2330.71,-213.96 2336.71,-213.96"/>
<text xml:space="preserve" text-anchor="middle" x="2417.83" y="-272.06" font-family="Helvetica,sans-Serif" font-size="22.00">Shared Contracts</text>
</g>
<!-- nodeMain -->
<g id="node1" class="node">
<title>nodeMain</title>
<path fill="#f7f8fa" stroke="#c8ccd0" d="M120.28,-172.96C120.28,-172.96 28,-172.96 28,-172.96 22,-172.96 16,-166.96 16,-160.96 16,-160.96 16,-148.96 16,-148.96 16,-142.96 22,-136.96 28,-136.96 28,-136.96 120.28,-136.96 120.28,-136.96 126.28,-136.96 132.28,-142.96 132.28,-148.96 132.28,-148.96 132.28,-160.96 132.28,-160.96 132.28,-166.96 126.28,-172.96 120.28,-172.96"/>
<text xml:space="preserve" text-anchor="middle" x="74.14" y="-156.51" font-family="Helvetica,sans-Serif" font-size="11.00">nodeMain.ts</text>
<text xml:space="preserve" text-anchor="middle" x="74.14" y="-144.51" font-family="Helvetica,sans-Serif" font-size="11.00">Node/Bun entrypoint</text>
</g>
<!-- main -->
<g id="node2" class="node">
<title>main</title>
<path fill="#f7f8fa" stroke="#c8ccd0" d="M322.56,-172.96C322.56,-172.96 231.03,-172.96 231.03,-172.96 225.03,-172.96 219.03,-166.96 219.03,-160.96 219.03,-160.96 219.03,-148.96 219.03,-148.96 219.03,-142.96 225.03,-136.96 231.03,-136.96 231.03,-136.96 322.56,-136.96 322.56,-136.96 328.56,-136.96 334.56,-142.96 334.56,-148.96 334.56,-148.96 334.56,-160.96 334.56,-160.96 334.56,-166.96 328.56,-172.96 322.56,-172.96"/>
<text xml:space="preserve" text-anchor="middle" x="276.79" y="-156.51" font-family="Helvetica,sans-Serif" font-size="11.00">main.ts</text>
<text xml:space="preserve" text-anchor="middle" x="276.79" y="-144.51" font-family="Helvetica,sans-Serif" font-size="11.00">CLI/server bootstrap</text>
</g>
<!-- nodeMain&#45;&gt;main -->
<g id="edge1" class="edge">
<title>nodeMain&#45;&gt;main</title>
<path fill="none" stroke="#6b7280" d="M132.64,-154.96C156.57,-154.96 184.49,-154.96 209.3,-154.96"/>
<polygon fill="#6b7280" stroke="#6b7280" points="209.12,-157.76 217.12,-154.96 209.12,-152.16 209.12,-157.76"/>
<text xml:space="preserve" text-anchor="middle" x="175.65" y="-156.71" font-family="Helvetica,sans-Serif" font-size="10.00">starts</text>
</g>
<!-- server -->
<g id="node3" class="node">
<title>server</title>
<path fill="#f7f8fa" stroke="#c8ccd0" d="M681.59,-157.96C681.59,-157.96 535.31,-157.96 535.31,-157.96 529.31,-157.96 523.31,-151.96 523.31,-145.96 523.31,-145.96 523.31,-133.96 523.31,-133.96 523.31,-127.96 529.31,-121.96 535.31,-121.96 535.31,-121.96 681.59,-121.96 681.59,-121.96 687.59,-121.96 693.59,-127.96 693.59,-133.96 693.59,-133.96 693.59,-145.96 693.59,-145.96 693.59,-151.96 687.59,-157.96 681.59,-157.96"/>
<text xml:space="preserve" text-anchor="middle" x="608.45" y="-141.51" font-family="Helvetica,sans-Serif" font-size="11.00">server.ts</text>
<text xml:space="preserve" text-anchor="middle" x="608.45" y="-129.51" font-family="Helvetica,sans-Serif" font-size="11.00">Bun HTTP + WebSocket server</text>
</g>
<!-- main&#45;&gt;server -->
<g id="edge2" class="edge">
<title>main&#45;&gt;server</title>
<path fill="none" stroke="#6b7280" d="M334.84,-152.37C383.98,-150.13 455.88,-146.86 513.5,-144.24"/>
<polygon fill="#6b7280" stroke="#6b7280" points="513.61,-147.04 521.47,-143.88 513.35,-141.44 513.61,-147.04"/>
<text xml:space="preserve" text-anchor="middle" x="428.93" y="-152.69" font-family="Helvetica,sans-Serif" font-size="10.00">creates</text>
</g>
<!-- router -->
<g id="node4" class="node">
<title>router</title>
<path fill="#f7f8fa" stroke="#c8ccd0" d="M1035.37,-172.96C1035.37,-172.96 884.59,-172.96 884.59,-172.96 878.59,-172.96 872.59,-166.96 872.59,-160.96 872.59,-160.96 872.59,-148.96 872.59,-148.96 872.59,-142.96 878.59,-136.96 884.59,-136.96 884.59,-136.96 1035.37,-136.96 1035.37,-136.96 1041.37,-136.96 1047.37,-142.96 1047.37,-148.96 1047.37,-148.96 1047.37,-160.96 1047.37,-160.96 1047.37,-166.96 1041.37,-172.96 1035.37,-172.96"/>
<text xml:space="preserve" text-anchor="middle" x="959.98" y="-156.51" font-family="Helvetica,sans-Serif" font-size="11.00">protocol/router.ts</text>
<text xml:space="preserve" text-anchor="middle" x="959.98" y="-144.51" font-family="Helvetica,sans-Serif" font-size="11.00">JSON&#45;RPC validation + dispatch</text>
</g>
<!-- server&#45;&gt;router -->
<g id="edge4" class="edge">
<title>server&#45;&gt;router</title>
<path fill="none" stroke="#6b7280" d="M694.06,-143.59C744.95,-145.78 809.88,-148.57 862.73,-150.83"/>
<polygon fill="#6b7280" stroke="#6b7280" points="862.48,-153.63 870.6,-151.17 862.72,-148.03 862.48,-153.63"/>
<text xml:space="preserve" text-anchor="middle" x="783.09" y="-151.43" font-family="Helvetica,sans-Serif" font-size="10.00">raw WebSocket messages</text>
</g>
<!-- sessionManager -->
<g id="node5" class="node">
<title>sessionManager</title>
<path fill="#f7f8fa" stroke="#c8ccd0" d="M1350.15,-448.96C1350.15,-448.96 1168.62,-448.96 1168.62,-448.96 1162.62,-448.96 1156.62,-442.96 1156.62,-436.96 1156.62,-436.96 1156.62,-424.96 1156.62,-424.96 1156.62,-418.96 1162.62,-412.96 1168.62,-412.96 1168.62,-412.96 1350.15,-412.96 1350.15,-412.96 1356.15,-412.96 1362.15,-418.96 1362.15,-424.96 1362.15,-424.96 1362.15,-436.96 1362.15,-436.96 1362.15,-442.96 1356.15,-448.96 1350.15,-448.96"/>
<text xml:space="preserve" text-anchor="middle" x="1259.38" y="-432.51" font-family="Helvetica,sans-Serif" font-size="11.00">SessionManager</text>
<text xml:space="preserve" text-anchor="middle" x="1259.38" y="-420.51" font-family="Helvetica,sans-Serif" font-size="11.00">request handling, runs, graph activation</text>
</g>
<!-- server&#45;&gt;sessionManager -->
<g id="edge7" class="edge">
<title>server&#45;&gt;sessionManager</title>
<path fill="none" stroke="#6b7280" d="M634.41,-121.53C705.52,-71.45 913.21,57.68 1055.37,-29.71 1194.09,-114.99 1241.53,-327.67 1254.35,-403.54"/>
<polygon fill="#6b7280" stroke="#6b7280" points="1251.51,-403.56 1255.56,-411.01 1257.04,-402.66 1251.51,-403.56"/>
<text xml:space="preserve" text-anchor="middle" x="959.98" y="-31.46" font-family="Helvetica,sans-Serif" font-size="10.00">OAuth callback</text>
</g>
<!-- bunRuntime -->
<g id="node20" class="node">
<title>bunRuntime</title>
<polygon fill="#f7f8fa" stroke="#c8ccd0" points="1012.49,-96.96 907.46,-96.96 907.46,-92.96 903.46,-92.96 903.46,-88.96 907.46,-88.96 907.46,-68.96 903.46,-68.96 903.46,-64.96 907.46,-64.96 907.46,-60.96 1012.49,-60.96 1012.49,-96.96"/>
<polyline fill="none" stroke="#c8ccd0" points="907.46,-92.96 911.46,-92.96 911.46,-88.96 907.46,-88.96"/>
<polyline fill="none" stroke="#c8ccd0" points="907.46,-68.96 911.46,-68.96 911.46,-64.96 907.46,-64.96"/>
<text xml:space="preserve" text-anchor="middle" x="959.98" y="-80.51" font-family="Helvetica,sans-Serif" font-size="11.00">Bun runtime</text>
<text xml:space="preserve" text-anchor="middle" x="959.98" y="-68.51" font-family="Helvetica,sans-Serif" font-size="11.00">HTTP/WebSocket</text>
</g>
<!-- server&#45;&gt;bunRuntime -->
<g id="edge3" class="edge">
<title>server&#45;&gt;bunRuntime</title>
<path fill="none" stroke="#6b7280" d="M694.06,-125.2C757.03,-114.21 841.49,-99.47 897.96,-89.61"/>
<polygon fill="#6b7280" stroke="#6b7280" points="898.23,-92.41 905.63,-88.28 897.26,-86.89 898.23,-92.41"/>
<text xml:space="preserve" text-anchor="middle" x="783.09" y="-120.24" font-family="Helvetica,sans-Serif" font-size="10.00">serves on port</text>
</g>
<!-- router&#45;&gt;sessionManager -->
<g id="edge6" class="edge">
<title>router&#45;&gt;sessionManager</title>
<path fill="none" stroke="#6b7280" d="M980.49,-173.07C1032.28,-221.13 1173.22,-351.93 1232.04,-406.52"/>
<polygon fill="#6b7280" stroke="#6b7280" points="1229.92,-408.37 1237.69,-411.76 1233.73,-404.26 1229.92,-408.37"/>
<text xml:space="preserve" text-anchor="middle" x="1101.99" y="-302.99" font-family="Helvetica,sans-Serif" font-size="10.00">dispatches</text>
</g>
<!-- sharedSchemas -->
<g id="node17" class="node">
<title>sharedSchemas</title>
<path fill="#f7f8fa" stroke="#c8ccd0" d="M2485.97,-257.96C2485.97,-257.96 2348.69,-257.96 2348.69,-257.96 2342.69,-257.96 2336.69,-251.96 2336.69,-245.96 2336.69,-245.96 2336.69,-233.96 2336.69,-233.96 2336.69,-227.96 2342.69,-221.96 2348.69,-221.96 2348.69,-221.96 2485.97,-221.96 2485.97,-221.96 2491.97,-221.96 2497.97,-227.96 2497.97,-233.96 2497.97,-233.96 2497.97,-245.96 2497.97,-245.96 2497.97,-251.96 2491.97,-257.96 2485.97,-257.96"/>
<text xml:space="preserve" text-anchor="middle" x="2417.33" y="-241.51" font-family="Helvetica,sans-Serif" font-size="11.00">@multiagent/shared</text>
<text xml:space="preserve" text-anchor="middle" x="2417.33" y="-229.51" font-family="Helvetica,sans-Serif" font-size="11.00">Zod schemas + protocol types</text>
</g>
<!-- router&#45;&gt;sharedSchemas -->
<g id="edge5" class="edge">
<title>router&#45;&gt;sharedSchemas</title>
<path fill="none" stroke="#6b7280" d="M1011.12,-136.53C1089.12,-108.14 1233.24,-56.96 1258.38,-56.96 1258.38,-56.96 1258.38,-56.96 2047.07,-56.96 2188.42,-56.96 2331.51,-165.94 2389.48,-215.7"/>
<polygon fill="#6b7280" stroke="#6b7280" points="2387.43,-217.63 2395.3,-220.76 2391.1,-213.4 2387.43,-217.63"/>
<text xml:space="preserve" text-anchor="middle" x="1657.04" y="-58.71" font-family="Helvetica,sans-Serif" font-size="10.00">validates DaemonRequest</text>
</g>
<!-- workflowEngine -->
<g id="node6" class="node">
<title>workflowEngine</title>
<path fill="#f7f8fa" stroke="#c8ccd0" d="M1749.68,-417.96C1749.68,-417.96 1564.4,-417.96 1564.4,-417.96 1558.4,-417.96 1552.4,-411.96 1552.4,-405.96 1552.4,-405.96 1552.4,-393.96 1552.4,-393.96 1552.4,-387.96 1558.4,-381.96 1564.4,-381.96 1564.4,-381.96 1749.68,-381.96 1749.68,-381.96 1755.68,-381.96 1761.68,-387.96 1761.68,-393.96 1761.68,-393.96 1761.68,-405.96 1761.68,-405.96 1761.68,-411.96 1755.68,-417.96 1749.68,-417.96"/>
<text xml:space="preserve" text-anchor="middle" x="1657.04" y="-401.51" font-family="Helvetica,sans-Serif" font-size="11.00">WorkflowEngine</text>
<text xml:space="preserve" text-anchor="middle" x="1657.04" y="-389.51" font-family="Helvetica,sans-Serif" font-size="11.00">roles, workflows, plans, graph projection</text>
</g>
<!-- sessionManager&#45;&gt;workflowEngine -->
<g id="edge10" class="edge">
<title>sessionManager&#45;&gt;workflowEngine</title>
<path fill="none" stroke="#6b7280" d="M1331.24,-412.47C1351.13,-408.07 1372.86,-403.99 1393.15,-401.71 1441.95,-396.24 1496.16,-395.06 1542.62,-395.52"/>
<polygon fill="#6b7280" stroke="#6b7280" points="1542.56,-398.32 1550.6,-395.63 1542.63,-392.72 1542.56,-398.32"/>
<text xml:space="preserve" text-anchor="middle" x="1457.27" y="-403.46" font-family="Helvetica,sans-Serif" font-size="10.00">load catalogs, validate graph</text>
</g>
<!-- agentRuntime -->
<g id="node7" class="node">
<title>agentRuntime</title>
<path fill="#f7f8fa" stroke="#c8ccd0" d="M1739.55,-505.96C1739.55,-505.96 1574.52,-505.96 1574.52,-505.96 1568.52,-505.96 1562.52,-499.96 1562.52,-493.96 1562.52,-493.96 1562.52,-481.96 1562.52,-481.96 1562.52,-475.96 1568.52,-469.96 1574.52,-469.96 1574.52,-469.96 1739.55,-469.96 1739.55,-469.96 1745.55,-469.96 1751.55,-475.96 1751.55,-481.96 1751.55,-481.96 1751.55,-493.96 1751.55,-493.96 1751.55,-499.96 1745.55,-505.96 1739.55,-505.96"/>
<text xml:space="preserve" text-anchor="middle" x="1657.04" y="-489.51" font-family="Helvetica,sans-Serif" font-size="11.00">OpenAIAgentRuntime</text>
<text xml:space="preserve" text-anchor="middle" x="1657.04" y="-477.51" font-family="Helvetica,sans-Serif" font-size="11.00">Agents SDK + deterministic runtime</text>
</g>
<!-- sessionManager&#45;&gt;agentRuntime -->
<g id="edge11" class="edge">
<title>sessionManager&#45;&gt;agentRuntime</title>
<path fill="none" stroke="#6b7280" d="M1362.4,-438.59C1410.77,-442.92 1469.25,-449.21 1521.4,-457.71 1537.86,-460.4 1555.32,-463.86 1572.03,-467.47"/>
<polygon fill="#6b7280" stroke="#6b7280" points="1571.32,-470.19 1579.74,-469.17 1572.53,-464.72 1571.32,-470.19"/>
<text xml:space="preserve" text-anchor="middle" x="1457.27" y="-459.46" font-family="Helvetica,sans-Serif" font-size="10.00">run agent turns</text>
</g>
<!-- workspaceCoordinator -->
<g id="node8" class="node">
<title>workspaceCoordinator</title>
<path fill="#f7f8fa" stroke="#c8ccd0" d="M1726.05,-581.96C1726.05,-581.96 1588.02,-581.96 1588.02,-581.96 1582.02,-581.96 1576.02,-575.96 1576.02,-569.96 1576.02,-569.96 1576.02,-557.96 1576.02,-557.96 1576.02,-551.96 1582.02,-545.96 1588.02,-545.96 1588.02,-545.96 1726.05,-545.96 1726.05,-545.96 1732.05,-545.96 1738.05,-551.96 1738.05,-557.96 1738.05,-557.96 1738.05,-569.96 1738.05,-569.96 1738.05,-575.96 1732.05,-581.96 1726.05,-581.96"/>
<text xml:space="preserve" text-anchor="middle" x="1657.04" y="-565.51" font-family="Helvetica,sans-Serif" font-size="11.00">WorkspaceCoordinator</text>
<text xml:space="preserve" text-anchor="middle" x="1657.04" y="-553.51" font-family="Helvetica,sans-Serif" font-size="11.00">leases, conflicts, file attribution</text>
</g>
<!-- sessionManager&#45;&gt;workspaceCoordinator -->
<g id="edge12" class="edge">
<title>sessionManager&#45;&gt;workspaceCoordinator</title>
<path fill="none" stroke="#6b7280" d="M1287.18,-449.27C1313.19,-466.26 1354.34,-491.1 1393.15,-505.96 1449.05,-527.37 1514.8,-541.87 1566.57,-551.02"/>
<polygon fill="#6b7280" stroke="#6b7280" points="1565.89,-553.74 1574.25,-552.35 1566.84,-548.23 1565.89,-553.74"/>
<text xml:space="preserve" text-anchor="middle" x="1457.27" y="-543.78" font-family="Helvetica,sans-Serif" font-size="10.00">coordinate workspace writes</text>
</g>
<!-- eventStore -->
<g id="node9" class="node">
<title>eventStore</title>
<path fill="#f7f8fa" stroke="#c8ccd0" d="M2134.21,-417.96C2134.21,-417.96 1957.93,-417.96 1957.93,-417.96 1951.93,-417.96 1945.93,-411.96 1945.93,-405.96 1945.93,-405.96 1945.93,-393.96 1945.93,-393.96 1945.93,-387.96 1951.93,-381.96 1957.93,-381.96 1957.93,-381.96 2134.21,-381.96 2134.21,-381.96 2140.21,-381.96 2146.21,-387.96 2146.21,-393.96 2146.21,-393.96 2146.21,-405.96 2146.21,-405.96 2146.21,-411.96 2140.21,-417.96 2134.21,-417.96"/>
<text xml:space="preserve" text-anchor="middle" x="2046.07" y="-401.51" font-family="Helvetica,sans-Serif" font-size="11.00">EventStore</text>
<text xml:space="preserve" text-anchor="middle" x="2046.07" y="-389.51" font-family="Helvetica,sans-Serif" font-size="11.00">JSONL events, debug logs, snapshots</text>
</g>
<!-- sessionManager&#45;&gt;eventStore -->
<g id="edge9" class="edge">
<title>sessionManager&#45;&gt;eventStore</title>
<path fill="none" stroke="#6b7280" d="M1309.11,-412.49C1334.03,-403.45 1364.96,-392.85 1393.15,-384.96 1616.76,-322.43 1686.53,-317.17 1914.93,-358.96 1939.31,-363.42 1965.49,-371.09 1987.94,-378.59"/>
<polygon fill="#6b7280" stroke="#6b7280" points="1986.76,-381.14 1995.23,-381.07 1988.56,-375.84 1986.76,-381.14"/>
<text xml:space="preserve" text-anchor="middle" x="1657.04" y="-346.61" font-family="Helvetica,sans-Serif" font-size="10.00">append/replay events</text>
</g>
<!-- authManager -->
<g id="node13" class="node">
<title>authManager</title>
<path fill="#f7f8fa" stroke="#c8ccd0" d="M1735.05,-970.96C1735.05,-970.96 1579.02,-970.96 1579.02,-970.96 1573.02,-970.96 1567.02,-964.96 1567.02,-958.96 1567.02,-958.96 1567.02,-946.96 1567.02,-946.96 1567.02,-940.96 1573.02,-934.96 1579.02,-934.96 1579.02,-934.96 1735.05,-934.96 1735.05,-934.96 1741.05,-934.96 1747.05,-940.96 1747.05,-946.96 1747.05,-946.96 1747.05,-958.96 1747.05,-958.96 1747.05,-964.96 1741.05,-970.96 1735.05,-970.96"/>
<text xml:space="preserve" text-anchor="middle" x="1657.04" y="-954.51" font-family="Helvetica,sans-Serif" font-size="11.00">AuthManager</text>
<text xml:space="preserve" text-anchor="middle" x="1657.04" y="-942.51" font-family="Helvetica,sans-Serif" font-size="11.00">Codex OAuth, API key, account id</text>
</g>
<!-- sessionManager&#45;&gt;authManager -->
<g id="edge13" class="edge">
<title>sessionManager&#45;&gt;authManager</title>
<path fill="none" stroke="#6b7280" d="M1265.77,-449.15C1280.92,-498.65 1327.15,-638.97 1393.15,-740.96 1449.93,-828.7 1465.76,-855.53 1552.4,-913.96 1562.18,-920.56 1573.23,-926.23 1584.37,-931.05"/>
<polygon fill="#6b7280" stroke="#6b7280" points="1583.03,-933.53 1591.49,-933.99 1585.16,-928.35 1583.03,-933.53"/>
<text xml:space="preserve" text-anchor="middle" x="1457.27" y="-892.78" font-family="Helvetica,sans-Serif" font-size="10.00">credential status + live config</text>
</g>
<!-- codexIntegrationManager -->
<g id="node14" class="node">
<title>codexIntegrationManager</title>
<path fill="#f7f8fa" stroke="#c8ccd0" d="M1719.68,-893.96C1719.68,-893.96 1594.4,-893.96 1594.4,-893.96 1588.4,-893.96 1582.4,-887.96 1582.4,-881.96 1582.4,-881.96 1582.4,-869.96 1582.4,-869.96 1582.4,-863.96 1588.4,-857.96 1594.4,-857.96 1594.4,-857.96 1719.68,-857.96 1719.68,-857.96 1725.68,-857.96 1731.68,-863.96 1731.68,-869.96 1731.68,-869.96 1731.68,-881.96 1731.68,-881.96 1731.68,-887.96 1725.68,-893.96 1719.68,-893.96"/>
<text xml:space="preserve" text-anchor="middle" x="1657.04" y="-877.51" font-family="Helvetica,sans-Serif" font-size="11.00">CodexIntegrationManager</text>
<text xml:space="preserve" text-anchor="middle" x="1657.04" y="-865.51" font-family="Helvetica,sans-Serif" font-size="11.00">Codex skills + MCP catalog</text>
</g>
<!-- sessionManager&#45;&gt;codexIntegrationManager -->
<g id="edge14" class="edge">
<title>sessionManager&#45;&gt;codexIntegrationManager</title>
<path fill="none" stroke="#6b7280" d="M1276.63,-449.24C1338.88,-519.25 1562.26,-770.49 1633.82,-850.97"/>
<polygon fill="#6b7280" stroke="#6b7280" points="1631.46,-852.53 1638.87,-856.65 1635.65,-848.81 1631.46,-852.53"/>
<text xml:space="preserve" text-anchor="middle" x="1457.27" y="-721.07" font-family="Helvetica,sans-Serif" font-size="10.00">skills/MCP list + reconnect</text>
</g>
<!-- sessionManager&#45;&gt;sharedSchemas -->
<g id="edge15" class="edge">
<title>sessionManager&#45;&gt;sharedSchemas</title>
<path fill="none" stroke="#6b7280" d="M1282.39,-412.6C1307.59,-392.51 1350.86,-360.81 1393.15,-342.96 1718.01,-205.88 1824.62,-224.17 2177.21,-221.96 2232.54,-221.62 2246.54,-217.66 2301.71,-221.96 2309.97,-222.61 2318.53,-223.51 2327.09,-224.57"/>
<polygon fill="#6b7280" stroke="#6b7280" points="2326.56,-227.33 2334.86,-225.58 2327.29,-221.77 2326.56,-227.33"/>
<text xml:space="preserve" text-anchor="middle" x="1853.8" y="-231.45" font-family="Helvetica,sans-Serif" font-size="10.00">uses protocol/session types</text>
</g>
<!-- personalCatalog -->
<g id="node11" class="node">
<title>personalCatalog</title>
<polygon fill="#f7f8fa" stroke="#c8ccd0" points="2093.71,-581.72 2090.71,-585.72 2069.71,-585.72 2066.71,-581.72 1998.43,-581.72 1998.43,-534.2 2093.71,-534.2 2093.71,-581.72"/>
<text xml:space="preserve" text-anchor="middle" x="2046.07" y="-565.51" font-family="Helvetica,sans-Serif" font-size="11.00">sessions/config/</text>
<text xml:space="preserve" text-anchor="middle" x="2046.07" y="-553.51" font-family="Helvetica,sans-Serif" font-size="11.00">roles/*.json</text>
<text xml:space="preserve" text-anchor="middle" x="2046.07" y="-541.51" font-family="Helvetica,sans-Serif" font-size="11.00">workflows/*.json</text>
</g>
<!-- workflowEngine&#45;&gt;personalCatalog -->
<g id="edge17" class="edge">
<title>workflowEngine&#45;&gt;personalCatalog</title>
<path fill="none" stroke="#6b7280" d="M1703.19,-418.4C1774.33,-447.44 1912.32,-503.77 1989.45,-535.26"/>
<polygon fill="#6b7280" stroke="#6b7280" points="1988.23,-537.78 1996.69,-538.21 1990.35,-532.6 1988.23,-537.78"/>
<text xml:space="preserve" text-anchor="middle" x="1853.8" y="-504.1" font-family="Helvetica,sans-Serif" font-size="10.00">loads/writes</text>
</g>
<!-- builtInWorkflows -->
<g id="node12" class="node">
<title>builtInWorkflows</title>
<polygon fill="#f7f8fa" stroke="#c8ccd0" points="2121.46,-493.96 2118.46,-497.96 2097.46,-497.96 2094.46,-493.96 1970.68,-493.96 1970.68,-457.96 2121.46,-457.96 2121.46,-493.96"/>
<text xml:space="preserve" text-anchor="middle" x="2046.07" y="-477.51" font-family="Helvetica,sans-Serif" font-size="11.00">apps/daemon/src/workflows</text>
<text xml:space="preserve" text-anchor="middle" x="2046.07" y="-465.51" font-family="Helvetica,sans-Serif" font-size="11.00">predefined workflow specs</text>
</g>
<!-- workflowEngine&#45;&gt;builtInWorkflows -->
<g id="edge16" class="edge">
<title>workflowEngine&#45;&gt;builtInWorkflows</title>
<path fill="none" stroke="#6b7280" d="M1716.99,-381.51C1772.27,-367.91 1855.16,-357.42 1914.93,-393.71 1933.88,-405.22 1921.21,-423.41 1937.93,-437.96 1945.04,-444.15 1953.22,-449.35 1961.83,-453.72"/>
<polygon fill="#6b7280" stroke="#6b7280" points="1960.39,-456.14 1968.83,-457.01 1962.78,-451.07 1960.39,-456.14"/>
<text xml:space="preserve" text-anchor="middle" x="1853.8" y="-395.46" font-family="Helvetica,sans-Serif" font-size="10.00">loads</text>
</g>
<!-- workflowEngine&#45;&gt;sharedSchemas -->
<g id="edge18" class="edge">
<title>workflowEngine&#45;&gt;sharedSchemas</title>
<path fill="none" stroke="#6b7280" d="M1727.4,-381.48C1741.6,-376.97 1756.29,-371.75 1769.68,-365.96 1848.77,-331.81 1855.4,-294.42 1937.93,-269.71 2069.22,-230.41 2229.58,-229.36 2327.27,-233.62"/>
<polygon fill="#6b7280" stroke="#6b7280" points="2326.89,-236.4 2335.01,-233.97 2327.15,-230.81 2326.89,-236.4"/>
<text xml:space="preserve" text-anchor="middle" x="2046.07" y="-271.46" font-family="Helvetica,sans-Serif" font-size="10.00">validates specs</text>
</g>
<!-- agentRuntime&#45;&gt;sessionManager -->
<g id="edge27" class="edge">
<title>agentRuntime&#45;&gt;sessionManager</title>
<path fill="none" stroke="#6b7280" stroke-dasharray="5,2" d="M1562.03,-487.07C1511.62,-485.29 1448.62,-480.98 1393.15,-470.96 1368.99,-466.6 1343.02,-459.37 1320.51,-452.25"/>
<polygon fill="#6b7280" stroke="#6b7280" points="1321.65,-449.67 1313.18,-449.88 1319.93,-455 1321.65,-449.67"/>
<text xml:space="preserve" text-anchor="middle" x="1457.27" y="-486.52" font-family="Helvetica,sans-Serif" font-size="10.00">workflow tools callbacks</text>
</g>
<!-- agentRuntime&#45;&gt;sharedSchemas -->
<g id="edge26" class="edge">
<title>agentRuntime&#45;&gt;sharedSchemas</title>
<path fill="none" stroke="#6b7280" d="M1751.96,-504.02C1806,-507.7 1871.56,-501.86 1914.93,-462.96 1952.19,-429.54 1903,-388.56 1937.93,-352.71 1944.8,-345.66 2190.61,-290.13 2327.13,-259.72"/>
<polygon fill="#6b7280" stroke="#6b7280" points="2327.68,-262.47 2334.88,-258 2326.46,-257 2327.68,-262.47"/>
<text xml:space="preserve" text-anchor="middle" x="2046.07" y="-354.46" font-family="Helvetica,sans-Serif" font-size="10.00">emits SessionEvent</text>
</g>
<!-- openaiAgents -->
<g id="node18" class="node">
<title>openaiAgents</title>
<polygon fill="#f7f8fa" stroke="#c8ccd0" points="2117.71,-739.96 1974.43,-739.96 1974.43,-735.96 1970.43,-735.96 1970.43,-731.96 1974.43,-731.96 1974.43,-711.96 1970.43,-711.96 1970.43,-707.96 1974.43,-707.96 1974.43,-703.96 2117.71,-703.96 2117.71,-739.96"/>
<polyline fill="none" stroke="#c8ccd0" points="1974.43,-735.96 1978.43,-735.96 1978.43,-731.96 1974.43,-731.96"/>
<polyline fill="none" stroke="#c8ccd0" points="1974.43,-711.96 1978.43,-711.96 1978.43,-707.96 1974.43,-707.96"/>
<text xml:space="preserve" text-anchor="middle" x="2046.07" y="-723.51" font-family="Helvetica,sans-Serif" font-size="11.00">@openai/agents</text>
<text xml:space="preserve" text-anchor="middle" x="2046.07" y="-711.51" font-family="Helvetica,sans-Serif" font-size="11.00">Agent, tools, MCP servers</text>
</g>
<!-- agentRuntime&#45;&gt;openaiAgents -->
<g id="edge24" class="edge">
<title>agentRuntime&#45;&gt;openaiAgents</title>
<path fill="none" stroke="#6b7280" d="M1743.71,-506.45C1753.47,-511.47 1762.47,-517.85 1769.68,-525.96 1802.27,-562.66 1760.23,-597.15 1792.68,-633.96 1836.14,-683.26 1908.75,-704.94 1964.96,-714.48"/>
<polygon fill="#6b7280" stroke="#6b7280" points="1964.35,-717.22 1972.7,-715.72 1965.24,-711.69 1964.35,-717.22"/>
<text xml:space="preserve" text-anchor="middle" x="1853.8" y="-703.23" font-family="Helvetica,sans-Serif" font-size="10.00">constructs agents/tools</text>
</g>
<!-- openaiClient -->
<g id="node19" class="node">
<title>openaiClient</title>
<polygon fill="#f7f8fa" stroke="#c8ccd0" points="2112.46,-663.96 1979.68,-663.96 1979.68,-659.96 1975.68,-659.96 1975.68,-655.96 1979.68,-655.96 1979.68,-635.96 1975.68,-635.96 1975.68,-631.96 1979.68,-631.96 1979.68,-627.96 2112.46,-627.96 2112.46,-663.96"/>
<polyline fill="none" stroke="#c8ccd0" points="1979.68,-659.96 1983.68,-659.96 1983.68,-655.96 1979.68,-655.96"/>
<polyline fill="none" stroke="#c8ccd0" points="1979.68,-635.96 1983.68,-635.96 1983.68,-631.96 1979.68,-631.96"/>
<text xml:space="preserve" text-anchor="middle" x="2046.07" y="-647.51" font-family="Helvetica,sans-Serif" font-size="11.00">OpenAI / Codex WHAM</text>
<text xml:space="preserve" text-anchor="middle" x="2046.07" y="-635.51" font-family="Helvetica,sans-Serif" font-size="11.00">live model backend</text>
</g>
<!-- agentRuntime&#45;&gt;openaiClient -->
<g id="edge25" class="edge">
<title>agentRuntime&#45;&gt;openaiClient</title>
<path fill="none" stroke="#6b7280" d="M1719.44,-506.42C1736.01,-512.05 1753.75,-518.7 1769.68,-525.96 1848.42,-561.86 1857.09,-593.08 1937.93,-623.96 1948.12,-627.86 1959.12,-631.11 1970.07,-633.81"/>
<polygon fill="#6b7280" stroke="#6b7280" points="1969.33,-636.52 1977.76,-635.61 1970.61,-631.06 1969.33,-636.52"/>
<text xml:space="preserve" text-anchor="middle" x="1853.8" y="-614.57" font-family="Helvetica,sans-Serif" font-size="10.00">live runs</text>
</g>
<!-- sessionsRoot -->
<g id="node10" class="node">
<title>sessionsRoot</title>
<polygon fill="#f7f8fa" stroke="#c8ccd0" points="2486.72,-538.72 2483.72,-542.72 2462.72,-542.72 2459.72,-538.72 2347.94,-538.72 2347.94,-455.2 2486.72,-455.2 2486.72,-538.72"/>
<text xml:space="preserve" text-anchor="middle" x="2417.33" y="-522.51" font-family="Helvetica,sans-Serif" font-size="11.00">sessions/&lt;sessionId&gt;/</text>
<text xml:space="preserve" text-anchor="middle" x="2417.33" y="-510.51" font-family="Helvetica,sans-Serif" font-size="11.00">events.jsonl</text>
<text xml:space="preserve" text-anchor="middle" x="2417.33" y="-498.51" font-family="Helvetica,sans-Serif" font-size="11.00">debug.jsonl</text>
<text xml:space="preserve" text-anchor="middle" x="2417.33" y="-486.51" font-family="Helvetica,sans-Serif" font-size="11.00">snapshot.json</text>
<text xml:space="preserve" text-anchor="middle" x="2417.33" y="-474.51" font-family="Helvetica,sans-Serif" font-size="11.00">&lt;agentId&gt;/transcript.jsonl</text>
<text xml:space="preserve" text-anchor="middle" x="2417.33" y="-462.51" font-family="Helvetica,sans-Serif" font-size="11.00">workspace/</text>
</g>
<!-- workspaceCoordinator&#45;&gt;sessionsRoot -->
<g id="edge28" class="edge">
<title>workspaceCoordinator&#45;&gt;sessionsRoot</title>
<path fill="none" stroke="#6b7280" d="M1668.34,-582.43C1687.98,-615.86 1734.1,-686.34 1792.68,-722.96 1926.63,-806.72 1999.85,-819.44 2146.21,-759.96 2252.11,-716.92 2339.24,-610.2 2383.92,-546.72"/>
<polygon fill="#6b7280" stroke="#6b7280" points="2386.02,-548.61 2388.29,-540.44 2381.42,-545.41 2386.02,-548.61"/>
<text xml:space="preserve" text-anchor="middle" x="2046.07" y="-798.54" font-family="Helvetica,sans-Serif" font-size="10.00">workspace file effects</text>
</g>
<!-- eventStore&#45;&gt;sessionsRoot -->
<g id="edge19" class="edge">
<title>eventStore&#45;&gt;sessionsRoot</title>
<path fill="none" stroke="#6b7280" d="M2117.4,-418.44C2180.55,-435.03 2273.12,-459.34 2338.49,-476.51"/>
<polygon fill="#6b7280" stroke="#6b7280" points="2337.61,-479.18 2346.06,-478.5 2339.03,-473.76 2337.61,-479.18"/>
<text xml:space="preserve" text-anchor="middle" x="2239.46" y="-467.34" font-family="Helvetica,sans-Serif" font-size="10.00">writes</text>
</g>
<!-- eventStore&#45;&gt;sharedSchemas -->
<g id="edge20" class="edge">
<title>eventStore&#45;&gt;sharedSchemas</title>
<path fill="none" stroke="#6b7280" d="M2146.45,-395.85C2195.46,-390.46 2254.11,-378.79 2301.71,-353.96 2342.25,-332.82 2377.62,-292.42 2397.97,-265.83"/>
<polygon fill="#6b7280" stroke="#6b7280" points="2400.08,-267.69 2402.64,-259.61 2395.6,-264.32 2400.08,-267.69"/>
<text xml:space="preserve" text-anchor="middle" x="2239.46" y="-392.83" font-family="Helvetica,sans-Serif" font-size="10.00">validates event/log/snapshot</text>
</g>
<!-- keychain -->
<g id="node15" class="node">
<title>keychain</title>
<path fill="#f7f8fa" stroke="#c8ccd0" d="M2119.58,-1015.94C2119.58,-1018.39 2086.63,-1020.38 2046.07,-1020.38 2005.51,-1020.38 1972.55,-1018.39 1972.55,-1015.94 1972.55,-1015.94 1972.55,-975.98 1972.55,-975.98 1972.55,-973.53 2005.51,-971.54 2046.07,-971.54 2086.63,-971.54 2119.58,-973.53 2119.58,-975.98 2119.58,-975.98 2119.58,-1015.94 2119.58,-1015.94"/>
<path fill="none" stroke="#c8ccd0" d="M2119.58,-1015.94C2119.58,-1013.49 2086.63,-1011.5 2046.07,-1011.5 2005.51,-1011.5 1972.55,-1013.49 1972.55,-1015.94"/>
<text xml:space="preserve" text-anchor="middle" x="2046.07" y="-997.51" font-family="Helvetica,sans-Serif" font-size="11.00">macOS Keychain</text>
<text xml:space="preserve" text-anchor="middle" x="2046.07" y="-985.51" font-family="Helvetica,sans-Serif" font-size="11.00">OAuth/API/account secrets</text>
</g>
<!-- authManager&#45;&gt;keychain -->
<g id="edge21" class="edge">
<title>authManager&#45;&gt;keychain</title>
<path fill="none" stroke="#6b7280" d="M1747.32,-962.88C1812.32,-970.1 1899.69,-979.81 1962.96,-986.84"/>
<polygon fill="#6b7280" stroke="#6b7280" points="1962.35,-989.59 1970.61,-987.69 1962.97,-984.03 1962.35,-989.59"/>
<text xml:space="preserve" text-anchor="middle" x="1853.8" y="-982.58" font-family="Helvetica,sans-Serif" font-size="10.00">stores secrets</text>
</g>
<!-- codexConfig -->
<g id="node16" class="node">
<title>codexConfig</title>
<polygon fill="#f7f8fa" stroke="#c8ccd0" points="2084.33,-930.72 2081.33,-934.72 2060.33,-934.72 2057.33,-930.72 2007.8,-930.72 2007.8,-871.2 2084.33,-871.2 2084.33,-930.72"/>
<text xml:space="preserve" text-anchor="middle" x="2046.07" y="-914.51" font-family="Helvetica,sans-Serif" font-size="11.00">~/.codex</text>
<text xml:space="preserve" text-anchor="middle" x="2046.07" y="-902.51" font-family="Helvetica,sans-Serif" font-size="11.00">config.toml</text>
<text xml:space="preserve" text-anchor="middle" x="2046.07" y="-890.51" font-family="Helvetica,sans-Serif" font-size="11.00">auth.json</text>
<text xml:space="preserve" text-anchor="middle" x="2046.07" y="-878.51" font-family="Helvetica,sans-Serif" font-size="11.00">skills/plugins</text>
</g>
<!-- authManager&#45;&gt;codexConfig -->
<g id="edge22" class="edge">
<title>authManager&#45;&gt;codexConfig</title>
<path fill="none" stroke="#6b7280" d="M1747.32,-940.97C1825.67,-930.44 1936.52,-915.55 1998.5,-907.22"/>
<polygon fill="#6b7280" stroke="#6b7280" points="1998.59,-910.03 2006.14,-906.19 1997.84,-904.48 1998.59,-910.03"/>
<text xml:space="preserve" text-anchor="middle" x="1853.8" y="-936.41" font-family="Helvetica,sans-Serif" font-size="10.00">discovers Codex auth</text>
</g>
<!-- codexIntegrationManager&#45;&gt;codexConfig -->
<g id="edge23" class="edge">
<title>codexIntegrationManager&#45;&gt;codexConfig</title>
<path fill="none" stroke="#6b7280" d="M1731.75,-880.73C1810.14,-885.79 1931.77,-893.65 1998.07,-897.93"/>
<polygon fill="#6b7280" stroke="#6b7280" points="1997.77,-900.71 2005.93,-898.44 1998.13,-895.13 1997.77,-900.71"/>
<text xml:space="preserve" text-anchor="middle" x="1853.8" y="-893.91" font-family="Helvetica,sans-Serif" font-size="10.00">discovers MCP + skills</text>
</g>
<!-- swiftApp -->
<g id="node21" class="node">
<title>swiftApp</title>
<polygon fill="#f7f8fa" stroke="#c8ccd0" points="327.06,-96.96 226.53,-96.96 226.53,-92.96 222.53,-92.96 222.53,-88.96 226.53,-88.96 226.53,-68.96 222.53,-68.96 222.53,-64.96 226.53,-64.96 226.53,-60.96 327.06,-60.96 327.06,-96.96"/>
<polyline fill="none" stroke="#c8ccd0" points="226.53,-92.96 230.53,-92.96 230.53,-88.96 226.53,-88.96"/>
<polyline fill="none" stroke="#c8ccd0" points="226.53,-68.96 230.53,-68.96 230.53,-64.96 226.53,-64.96"/>
<text xml:space="preserve" text-anchor="middle" x="276.79" y="-80.51" font-family="Helvetica,sans-Serif" font-size="11.00">SwiftUI app</text>
<text xml:space="preserve" text-anchor="middle" x="276.79" y="-68.51" font-family="Helvetica,sans-Serif" font-size="11.00">WebSocket client</text>
</g>
<!-- swiftApp&#45;&gt;server -->
<g id="edge8" class="edge">
<title>swiftApp&#45;&gt;server</title>
<path fill="none" stroke="#6b7280" d="M336.57,-89.84C385.8,-98.95 456.95,-112.12 513.98,-122.67"/>
<polygon fill="#6b7280" stroke="#6b7280" points="337.37,-87.14 328.99,-88.44 336.35,-92.65 337.37,-87.14"/>
<polygon fill="#6b7280" stroke="#6b7280" points="513.14,-125.36 521.52,-124.06 514.16,-119.85 513.14,-125.36"/>
<text xml:space="preserve" text-anchor="middle" x="428.93" y="-120.24" font-family="Helvetica,sans-Serif" font-size="10.00">JSON&#45;RPC over WebSocket</text>
</g>
</g>
</svg>
